{
  "accessors": [
    {
      "bufferView": 2,
      "componentType": 5126,
      "count": 65532,
      "max": [
        276.15383911132812,
        148.4532470703125,
        1383.9647216796875
      ],
      "min": [
        -296.74197387695312,
        -534.11883544921875,
        -716.72479248046875
      ],
      "type": "VEC3"
    },
    {
      "bufferView": 2,
      "byteOffset": 786384,
      "componentType": 5126,
      "count": 65532,
      "max": [
        0.99998891353607178,
        0.99998003244400024,
        0.9999048113822937
      ],
      "min": [
        -0.99996542930603027,
        -0.99999827146530151,
        -1
      ],
      "type": "VEC3"
    },
    {
      "bufferView": 3,
      "componentType": 5126,
      "count": 65532,
      "max": [
        1,
        1,
        0.98937726020812988,
        1
      ],
      "min": [
        -1,
        -1,
        -0.98384779691696167,
        1
      ],
      "type": "VEC4"
    },
    {
      "bufferView": 1,
      "componentType": 5126,
      "count": 65532,
      "max": [
        0.9817696213722229,
        0.99392390251159668
      ],
      "min": [
        0.0060757040046155453,
        0.018325567245483398
      ],
      "type": "VEC2"
    },
    {
      "bufferView": 0,
      "componentType": 5125,
      "count": 330147,
      "max": [
        65531
      ],
      "min": [
        0
      ],
      "type": "SCALAR"
    },
    {
      "bufferView": 2,
      "byteOffset": 1572768,
      "componentType": 5126,
      "count": 65532,
      "max": [
        275.31759643554688,
        161.77525329589844,
        898.1478271484375
      ],
      "min": [
        -305.51443481445312,
        -233.44660949707031,
        -556.06085205078125
      ],
      "type": "VEC3"
    },
    {
      "bufferView": 2,
      "byteOffset": 2359152,
      "componentType": 5126,
      "count": 65532,
      "max": [
        0.99998235702514648,
        0.99998706579208374,
        0.99994105100631714
      ],
      "min": [
        -0.99999058246612549,
        -0.99996781349182129,
        -0.99997657537460327
      ],
      "type": "VEC3"
    },
    {
      "bufferView": 3,
      "byteOffset": 1048512,
      "componentType": 5126,
      "count": 65532,
      "max": [
        1,
        1,
        0.98198598623275757,
        1
      ],
      "min": [
        -1,
        -1,
        -0.93990975618362427,
        1
      ],
      "type": "VEC4"
    },
    {
      "bufferView": 1,
      "byteOffset": 524256,
      "componentType": 5126,
      "count": 65532,
      "max": [
        0.96793043613433838,
        0.99392390251159668
      ],
      "min": [
        0.0060757040046155453,
        0.01578831672668457
      ],
      "type": "VEC2"
    },
    {
      "bufferView": 0,
      "byteOffset": 1320588,
      "componentType": 5125,
      "count": 328011,
      "max": [
        65531
      ],
      "min": [
        0
      ],
      "type": "SCALAR"
    },
    {
      "bufferView": 2,
      "byteOffset": 3145536,
      "componentType": 5126,
      "count": 65532,
      "max": [
        266.01235961914062,
        170.84506225585938,
        882.6417236328125
      ],
      "min": [
        -335.18991088867188,
        -148.27716064453125,
        -351.34588623046875
      ],
      "type": "VEC3"
    },
    {
      "bufferView": 2,
      "byteOffset": 3931920,
      "componentType": 5126,
      "count": 65532,
      "max": [
        0.99992287158966064,
        0.99996870756149292,
        0.99999934434890747
      ],
      "min": [
        -0.99991363286972046,
        -0.99990034103393555,
        -0.99999988079071045
      ],
      "type": "VEC3"
    },
    {
      "bufferView": 3,
      "byteOffset": 2097024,
      "componentType": 5126,
      "count": 65532,
      "max": [
        1,
        1,
        0.9672921895980835,
        1
      ],
      "min": [
        -1,
        -0.99999988079071045,
        -0.98845219612121582,
        1
      ],
      "type": "VEC4"
    },
    {
      "bufferView": 1,
      "byteOffset": 1048512,
      "componentType": 5126,
      "count": 65532,
      "max": [
        0.98502886295318604,
        0.99392390251159668
      ],
      "min": [
        0.0060757040046155453,
        0.01930999755859375
      ],
      "type": "VEC2"
    },
    {
      "bufferView": 0,
      "byteOffset": 2632632,
      "componentType": 5125,
      "count": 318390,
      "max": [
        65531
      ],
      "min": [
        0
      ],
      "type": "SCALAR"
    },
    {
      "bufferView": 2,
      "byteOffset": 4718304,
      "componentType": 5126,
      "count": 65532,
      "max": [
        158.5159912109375,
        128.56233215332031,
        1028.7169189453125
      ],
      "min": [
        -194.07936096191406,
        -141.62544250488281,
        -348.58200073242188
      ],
      "type": "VEC3"
    },
    {
      "bufferView": 2,
      "byteOffset": 5504688,
      "componentType": 5126,
      "count": 65532,
      "max": [
        0.99999940395355225,
        0.9999576210975647,
        0.99999129772186279
      ],
      "min": [
        -0.99997895956039429,
        -0.99997729063034058,
        -0.99998354911804199
      ],
      "type": "VEC3"
    },
    {
      "bufferView": 3,
      "byteOffset": 3145536,
      "componentType": 5126,
      "count": 65532,
      "max": [
        1,
        1,
        0.98845469951629639,
        1
      ],
      "min": [
        -1,
        -1,
        -0.97849220037460327,
        -1
      ],
      "type": "VEC4"
    },
    {
      "bufferView": 1,
      "byteOffset": 1572768,
      "componentType": 5126,
      "count": 65532,
      "max": [
        0.99283373355865479,
        0.99392390251159668
      ],
      "min": [
        0.0060757040046155453,
        0.0060760974884033203
      ],
      "type": "VEC2"
    },
    {
      "bufferView": 0,
      "byteOffset": 3906192,
      "componentType": 5125,
      "count": 335484,
      "max": [
        65531
      ],
      "min": [
        0
      ],
      "type": "SCALAR"
    },
    {
      "bufferView": 2,
      "byteOffset": 6291072,
      "componentType": 5126,
      "count": 65532,
      "max": [
        463.90744018554688,
        296.80453491210938,
        1010.9879760742188
      ],
      "min": [
        -451.05538940429688,
        -778.080322265625,
        -756.91015625
      ],
      "type": "VEC3"
    },
    {
      "bufferView": 2,
      "byteOffset": 7077456,
      "componentType": 5126,
      "count": 65532,
      "max": [
        1,
        1,
        1
      ],
      "min": [
        -1,
        -1,
        -1
      ],
      "type": "VEC3"
    },
    {
      "bufferView": 3,
      "byteOffset": 4194048,
      "componentType": 5126,
      "count": 65532,
      "max": [
        1,
        1,
        0.99999082088470459,
        1
      ],
      "min": [
        -1,
        -1,
        -0.98385161161422729,
        -1
      ],
      "type": "VEC4"
    },
    {
      "bufferView": 1,
      "byteOffset": 2097024,
      "componentType": 5126,
      "count": 65532,
      "max": [
        0.99392431974411011,
        0.99392390251159668
      ],
      "min": [
        0.0060757040046155453,
        0.0060760974884033203
      ],
      "type": "VEC2"
    },
    {
      "bufferView": 0,
      "byteOffset": 5248128,
      "componentType": 5125,
      "count": 356580,
      "max": [
        65531
      ],
      "min": [
        0
      ],
      "type": "SCALAR"
    },
    {
      "bufferView": 2,
      "byteOffset": 7863840,
      "componentType": 5126,
      "count": 65532,
      "max": [
        459.61129760742188,
        296.80453491210938,
        -530.50677490234375
      ],
      "min": [
        -451.2100830078125,
        -760.2325439453125,
        -752.16107177734375
      ],
      "type": "VEC3"
    },
    {
      "bufferView": 2,
      "byteOffset": 8650224,
      "componentType": 5126,
      "count": 65532,
      "max": [
        1,
        1,
        1
      ],
      "min": [
        -1,
        -1,
        -1
      ],
      "type": "VEC3"
    },
    {
      "bufferView": 3,
      "byteOffset": 5242560,
      "componentType": 5126,
      "count": 65532,
      "max": [
        1,
        1,
        0.99729824066162109,
        1
      ],
      "min": [
        -1,
        -1,
        -0.99986463785171509,
        -1
      ],
      "type": "VEC4"
    },
    {
      "bufferView": 1,
      "byteOffset": 2621280,
      "componentType": 5126,
      "count": 65532,
      "max": [
        0.97610700130462646,
        0.93412965536117554
      ],
      "min": [
        0.0060757040046155453,
        0.033902287483215332
      ],
      "type": "VEC2"
    },
    {
      "bufferView": 0,
      "byteOffset": 6674448,
      "componentType": 5125,
      "count": 375126,
      "max": [
        65531
      ],
      "min": [
        0
      ],
      "type": "SCALAR"
    },
    {
      "bufferView": 2,
      "byteOffset": 9436608,
      "componentType": 5126,
      "count": 51072,
      "max": [
        453.16964721679688,
        279.8330078125,
        1053.9224853515625
      ],
      "min": [
        -450.42318725585938,
        -574.801025390625,
        -738.0391845703125
      ],
      "type": "VEC3"
    },
    {
      "bufferView": 2,
      "byteOffset": 10049472,
      "componentType": 5126,
      "count": 51072,
      "max": [
        1,
        1,
        1
      ],
      "min": [
        -1,
        -1,
        -1
      ],
      "type": "VEC3"
    },
    {
      "bufferView": 3,
      "byteOffset": 6291072,
      "componentType": 5126,
      "count": 51072,
      "max": [
        1,
        1,
        0.89184451103210449,
        1
      ],
      "min": [
        -1,
        -1,
        -0.99511051177978516,
        -1
      ],
      "type": "VEC4"
    },
    {
      "bufferView": 1,
      "byteOffset": 3145536,
      "componentType": 5126,
      "count": 51072,
      "max": [
        0.97610700130462646,
        0.99392390251159668
      ],
      "min": [
        0.0060757040046155453,
        0.021398425102233887
      ],
      "type": "VEC2"
    },
    {
      "bufferView": 0,
      "byteOffset": 8174952,
      "componentType": 5125,
      "count": 285066,
      "max": [
        51071
      ],
      "min": [
        0
      ],
      "type": "SCALAR"
    }
  ],
  "asset": {
    "extras": {
      "author": "StraXartS (https://sketchfab.com/Strax123trt)",
      "license": "CC-BY-4.0 (http://creativecommons.org/licenses/by/4.0/)",
      "source": "https://sketchfab.com/3d-models/pennywise-the-dancing-clown-it-b5d5075716f14557beb55175f415a836",
      "title": "Pennywise the Dancing Clown IT"
    },
    "generator": "Sketchfab-6.70.0",
    "version": "2.0"
  },
  "bufferViews": [
    {
      "buffer": 0,
      "byteLength": 9315216,
      "byteOffset": 0,
      "name": "floatBufferViews",
      "target": 34963
    },
    {
      "buffer": 0,
      "byteLength": 3554112,
      "byteOffset": 9315216,
      "byteStride": 8,
      "name": "floatBufferViews",
      "target": 34962
    },
    {
      "buffer": 0,
      "byteLength": 10662336,
      "byteOffset": 12869328,
      "byteStride": 12,
      "name": "floatBufferViews",
      "target": 34962
    },
    {
      "buffer": 0,
      "byteLength": 7108224,
      "byteOffset": 23531664,
      "byteStride": 16,
      "name": "floatBufferViews",
      "target": 34962
    }
  ],
  "buffers": [
    {
      "byteLength": 30639888,
      "uri": "scene.bin"
    }
  ],
  "images": [
    {
      "uri": "textures/material_baseColor.png"
    },
    {
      "uri": "textures/material_metallicRoughness.png"
    }
  ],
  "materials": [
    {
      "doubleSided": true,
      "name": "material",
      "pbrMetallicRoughness": {
        "baseColorFactor": [
          1,
          1,
          1,
          1
        ],
        "baseColorTexture": {
          "index": 0,
          "texCoord": 0
        },
        "metallicFactor": 0.55941804828065811,
        "metallicRoughnessTexture": {
          "index": 1,
          "texCoord": 0
        },
        "roughnessFactor": 0.77997589111328125
      }
    }
  ],
  "meshes": [
    {
      "primitives": [
        {
          "attributes": {
            "NORMAL": 1,
            "POSITION": 0,
            "TANGENT": 2,
            "TEXCOORD_0": 3
          },
          "indices": 4,
          "material": 0,
          "mode": 4
        }
      ]
    },
    {
      "primitives": [
        {
          "attributes": {
            "NORMAL": 6,
            "POSITION": 5,
            "TANGENT": 7,
            "TEXCOORD_0": 8
          },
          "indices": 9,
          "material": 0,
          "mode": 4
        }
      ]
    },
    {
      "primitives": [
        {
          "attributes": {
            "NORMAL": 11,
            "POSITION": 10,
            "TANGENT": 12,
            "TEXCOORD_0": 13
          },
          "indices": 14,
          "material": 0,
          "mode": 4
        }
      ]
    },
    {
      "primitives": [
        {
          "attributes": {
            "NORMAL": 16,
            "POSITION": 15,
            "TANGENT": 17,
            "TEXCOORD_0": 18
          },
          "indices": 19,
          "material": 0,
          "mode": 4
        }
      ]
    },
    {
      "primitives": [
        {
          "attributes": {
            "NORMAL": 21,
            "POSITION": 20,
            "TANGENT": 22,
            "TEXCOORD_0": 23
          },
          "indices": 24,
          "material": 0,
          "mode": 4
        }
      ]
    },
    {
      "primitives": [
        {
          "attributes": {
            "NORMAL": 26,
            "POSITION": 25,
            "TANGENT": 27,
            "TEXCOORD_0": 28
          },
          "indices": 29,
          "material": 0,
          "mode": 4
        }
      ]
    },
    {
      "primitives": [
        {
          "attributes": {
            "NORMAL": 31,
            "POSITION": 30,
            "TANGENT": 32,
            "TEXCOORD_0": 33
          },
          "indices": 34,
          "material": 0,
          "mode": 4
        }
      ]
    }
  ],
  "nodes": [
    {
      "children": [
        1
      ],
      "name": "RootNode (gltf orientation matrix)",
      "rotation": [
        -0.70710678118654746,
        -0,
        -0,
        0.70710678118654757
      ]
    },
    {
      "children": [
        2
      ],
      "matrix": [
        1,
        3.1450057482662597e-32,
        -2.832769343193999e-16,
        0,
        4.8795769672831353e-32,
        1,
        2.832769343193999e-16,
        0,
        2.832769343193999e-16,
        -2.832769343193999e-16,
        1,
        0,
        -8.8817841970012523e-14,
        8.5265128291212022e-14,
        5.6843418860808015e-14,
        1
      ],
      "name": "RootNode (model correction matrix)"
    },
    {
      "children": [
        3,
        4,
        5,
        6,
        7,
        8,
        9
      ],
      "name": "OBJ.obj.cleaner.materialmerger.gles"
    },
    {
      "mesh": 0,
      "name": ""
    },
    {
      "mesh": 1,
      "name": ""
    },
    {
      "mesh": 2,
      "name": ""
    },
    {
      "mesh": 3,
      "name": ""
    },
    {
      "mesh": 4,
      "name": ""
    },
    {
      "mesh": 5,
      "name": ""
    },
    {
      "mesh": 6,
      "name": ""
    }
  ],
  "samplers": [
    {
      "magFilter": 9729,
      "minFilter": 9987,
      "wrapS": 10497,
      "wrapT": 10497
    },
    {
      "magFilter": 9728,
      "minFilter": 9986,
      "wrapS": 10497,
      "wrapT": 10497
    }
  ],
  "scene": 0,
  "scenes": [
    {
      "name": "OSG_Scene",
      "nodes": [
        0
      ]
    }
  ],
  "textures": [
    {
      "sampler": 0,
      "source": 0
    },
    {
      "sampler": 1,
      "source": 1
    }
  ]
}

