{
  "accessors": [
    {
      "bufferView": 2,
      "componentType": 5126,
      "count": 9990,
      "max": [
        74.344894409179688,
        252.54177856445312,
        64.925132751464844
      ],
      "min": [
        -1033.6480712890625,
        -277.64105224609375,
        -0.83503901958465576
      ],
      "type": "VEC3"
    },
    {
      "bufferView": 2,
      "byteOffset": 119880,
      "componentType": 5126,
      "count": 9990,
      "max": [
        0.99997878074645996,
        0.99997842311859131,
        0.99999964237213135
      ],
      "min": [
        -0.99997878074645996,
        -0.99997842311859131,
        -1
      ],
      "type": "VEC3"
    },
    {
      "bufferView": 3,
      "componentType": 5126,
      "count": 9990,
      "max": [
        0.99999785423278809,
        0.9933963418006897,
        0.99999970197677612,
        1
      ],
      "min": [
        -0.99950063228607178,
        -0.99734663963317871,
        -0.99999982118606567,
        -1
      ],
      "type": "VEC4"
    },
    {
      "bufferView": 1,
      "componentType": 5126,
      "count": 9990,
      "max": [
        0.98341900110244751,
        0.99243402481079102
      ],
      "min": [
        0.0061679999344050884,
        0.0143649997189641
      ],
      "type": "VEC2"
    },
    {
      "bufferView": 0,
      "componentType": 5125,
      "count": 19566,
      "max": [
        9989
      ],
      "min": [
        0
      ],
      "type": "SCALAR"
    },
    {
      "bufferView": 2,
      "byteOffset": 239760,
      "componentType": 5126,
      "count": 5200,
      "max": [
        -31.787958145141602,
        222.58961486816406,
        66.081192016601562
      ],
      "min": [
        -1016.314208984375,
        -172.79287719726562,
        -0.52588099241256714
      ],
      "type": "VEC3"
    },
    {
      "bufferView": 2,
      "byteOffset": 302160,
      "componentType": 5126,
      "count": 5200,
      "max": [
        0.99937111139297485,
        0.99867510795593262,
        0.99999988079071045
      ],
      "min": [
        -0.99937111139297485,
        -0.99867510795593262,
        -1
      ],
      "type": "VEC3"
    },
    {
      "bufferView": 3,
      "byteOffset": 159840,
      "componentType": 5126,
      "count": 5200,
      "max": [
        0.9982912540435791,
        0.99773353338241577,
        0.99999988079071045,
        1
      ],
      "min": [
        -0.99398511648178101,
        -0.99783706665039062,
        -0.99999988079071045,
        -1
      ],
      "type": "VEC4"
    },
    {
      "bufferView": 1,
      "byteOffset": 79920,
      "componentType": 5126,
      "count": 5200,
      "max": [
        0.98341900110244751,
        0.99243402481079102
      ],
      "min": [
        0.0061679999344050884,
        0.0143649997189641
      ],
      "type": "VEC2"
    },
    {
      "bufferView": 0,
      "byteOffset": 78264,
      "componentType": 5125,
      "count": 10194,
      "max": [
        5199
      ],
      "min": [
        0
      ],
      "type": "SCALAR"
    }
  ],
  "asset": {
    "extras": {
      "author": "M.Reslan (https://sketchfab.com/mreslan)",
      "license": "CC-BY-4.0 (http://creativecommons.org/licenses/by/4.0/)",
      "source": "https://sketchfab.com/3d-models/pile-of-books-468f4357f36c444c807125c7d3f64ed7",
      "title": "Pile of Books"
    },
    "generator": "Sketchfab-6.44.0",
    "version": "2.0"
  },
  "bufferViews": [
    {
      "buffer": 0,
      "byteLength": 119040,
      "byteOffset": 0,
      "name": "floatBufferViews",
      "target": 34963
    },
    {
      "buffer": 0,
      "byteLength": 121520,
      "byteOffset": 119040,
      "byteStride": 8,
      "name": "floatBufferViews",
      "target": 34962
    },
    {
      "buffer": 0,
      "byteLength": 364560,
      "byteOffset": 240560,
      "byteStride": 12,
      "name": "floatBufferViews",
      "target": 34962
    },
    {
      "buffer": 0,
      "byteLength": 243040,
      "byteOffset": 605120,
      "byteStride": 16,
      "name": "floatBufferViews",
      "target": 34962
    }
  ],
  "buffers": [
    {
      "byteLength": 848160,
      "uri": "scene.bin"
    }
  ],
  "images": [
    {
      "uri": "textures/Books_baseColor.png"
    },
    {
      "uri": "textures/Books_metallicRoughness.png"
    },
    {
      "uri": "textures/Books_normal.png"
    }
  ],
  "materials": [
    {
      "doubleSided": true,
      "name": "Books",
      "normalTexture": {
        "index": 2,
        "scale": 1,
        "texCoord": 0
      },
      "pbrMetallicRoughness": {
        "baseColorFactor": [
          1,
          1,
          1,
          1
        ],
        "baseColorTexture": {
          "index": 0,
          "texCoord": 0
        },
        "metallicFactor": 0,
        "metallicRoughnessTexture": {
          "index": 1,
          "texCoord": 0
        },
        "roughnessFactor": 1
      }
    }
  ],
  "meshes": [
    {
      "primitives": [
        {
          "attributes": {
            "NORMAL": 1,
            "POSITION": 0,
            "TANGENT": 2,
            "TEXCOORD_0": 3
          },
          "indices": 4,
          "material": 0,
          "mode": 4
        }
      ]
    },
    {
      "primitives": [
        {
          "attributes": {
            "NORMAL": 6,
            "POSITION": 5,
            "TANGENT": 7,
            "TEXCOORD_0": 8
          },
          "indices": 9,
          "material": 0,
          "mode": 4
        }
      ]
    }
  ],
  "nodes": [
    {
      "children": [
        1
      ],
      "name": "RootNode (gltf orientation matrix)",
      "rotation": [
        -0.70710678118654746,
        -0,
        -0,
        0.70710678118654757
      ]
    },
    {
      "children": [
        2
      ],
      "name": "RootNode (model correction matrix)"
    },
    {
      "children": [
        3,
        4
      ],
      "name": "Books_Pile.obj.cleaner.materialmerger.gles"
    },
    {
      "mesh": 0,
      "name": ""
    },
    {
      "mesh": 1,
      "name": ""
    }
  ],
  "samplers": [
    {
      "magFilter": 9729,
      "minFilter": 9987,
      "wrapS": 10497,
      "wrapT": 10497
    }
  ],
  "scene": 0,
  "scenes": [
    {
      "name": "OSG_Scene",
      "nodes": [
        0
      ]
    }
  ],
  "textures": [
    {
      "sampler": 0,
      "source": 0
    },
    {
      "sampler": 0,
      "source": 1
    },
    {
      "sampler": 0,
      "source": 2
    }
  ]
}

